<svg id="Capa_1" enable-background="new 0 0 512 512" height="512" viewBox="0 0 512 512" width="512" xmlns="http://www.w3.org/2000/svg"><g id="XMLID_888_"><path id="XMLID_923_" d="m298.25 194.229h-84.5c-12.012 0-21.75 9.738-21.75 21.75v42.25h128v-42.25c0-12.013-9.738-21.75-21.75-21.75z" fill="#d2d5dd"/><path id="XMLID_922_" d="m318.913 258.229 34.462 34.461v156.539l-97.375 52.771-97.375-52.771v-156.539l34.462-34.461" fill="#ff7a7a"/><path id="XMLID_920_" d="m193.087 258.229-34.462 34.461v156.539l97.375 52.771 97.375-52.771v-156.539l-34.462-34.461" fill="#ff7a7a"/><path id="XMLID_919_" d="m305.375 312.573 48-19.883-34.462-34.461h-125.826l-34.462 34.461 48 19.883z" fill="#ff9b9b"/><path id="XMLID_917_" d="m256 502v-54.596l49.375-26.758 48 28.583z" fill="#e2a0a7"/><path id="XMLID_916_" d="m256 502v-54.596l-49.375-26.758-48 28.583z" fill="#ff9b9b"/><g id="XMLID_909_"><path id="XMLID_912_" d="m206.625 420.646 49.375 26.758 49.375-26.758v-108.073l-49.375-49.375-49.375 49.375z" fill="#ebc0c4"/></g><g id="XMLID_126_"><path id="XMLID_150_" d="m440.229 0c-5.522 0-10 4.477-10 10 0 96.07-78.158 174.229-174.229 174.229s-174.229-78.159-174.229-174.229c0-5.523-4.478-10-10-10s-10 4.477-10 10c0 51.92 20.192 100.707 56.857 137.372 20.912 20.911 45.77 36.454 72.899 45.959-5.875 5.765-9.528 13.787-9.528 22.648v39.194l-30.446 30.446c-1.875 1.875-2.929 4.419-2.929 7.071v31.81c0 5.523 4.478 10 10 10s10-4.477 10-10v-16.843l28 11.598v95.707l-28 16.673v-17.135c0-5.523-4.478-10-10-10s-10 4.477-10 10v34.728c0 3.669 2.01 7.043 5.235 8.792l97.375 52.771c1.488.806 3.126 1.209 4.766 1.209s3.278-.403 4.765-1.208l97.375-52.771c3.226-1.749 5.235-5.123 5.235-8.792v-156.539c0-2.652-1.054-5.196-2.929-7.071l-30.446-30.446v-39.194c0-8.862-3.653-16.883-9.528-22.648 27.13-9.505 51.988-25.047 72.899-45.959 36.665-36.665 56.858-85.452 56.858-137.372 0-5.523-4.478-10-10-10zm-125.458 268.229 20.951 20.95-28 11.598-32.548-32.548zm28.604 163.406-28-16.673v-95.707l28-11.598zm-48-114.92v97.977l-39.375 21.338-39.375-21.339v-97.977l39.375-39.374zm-88.517 115.431 39.142 21.213v31.847l-67.142-36.387zm59.142 21.213 39.142-21.213 28 16.673-67.142 36.388zm-61.722-152.582-28-11.598 20.951-20.95h39.597zm93.972-96.548c6.479 0 11.75 5.271 11.75 11.75v32.25h-108v-32.25c0-6.479 5.271-11.75 11.75-11.75z"/><path id="XMLID_160_" d="m462 166c-5.522 0-10 4.477-10 10v10c0 5.523 4.478 10 10 10s10-4.477 10-10v-10c0-5.523-4.478-10-10-10z"/><path id="XMLID_809_" d="m462 236c-5.522 0-10 4.477-10 10v10c0 5.523 4.478 10 10 10s10-4.477 10-10v-10c0-5.523-4.478-10-10-10z"/><path id="XMLID_1166_" d="m502 206h-10c-5.522 0-10 4.477-10 10s4.478 10 10 10h10c5.522 0 10-4.477 10-10s-4.478-10-10-10z"/><path id="XMLID_1170_" d="m432 206h-10c-5.522 0-10 4.477-10 10s4.478 10 10 10h10c5.522 0 10-4.477 10-10s-4.478-10-10-10z"/><path id="XMLID_1172_" d="m50 377.207c-5.522 0-10 4.477-10 10v10c0 5.523 4.478 10 10 10s10-4.477 10-10v-10c0-5.523-4.478-10-10-10z"/><path id="XMLID_1174_" d="m50 447.207c-5.522 0-10 4.477-10 10v10c0 5.523 4.478 10 10 10s10-4.477 10-10v-10c0-5.523-4.478-10-10-10z"/><path id="XMLID_1189_" d="m90 417.207h-10c-5.522 0-10 4.477-10 10s4.478 10 10 10h10c5.522 0 10-4.477 10-10s-4.478-10-10-10z"/><path id="XMLID_1192_" d="m20 417.207h-10c-5.522 0-10 4.477-10 10s4.478 10 10 10h10c5.522 0 10-4.477 10-10s-4.478-10-10-10z"/><path id="XMLID_1258_" d="m165.689 376.57c1.87-1.86 2.94-4.44 2.94-7.07s-1.07-5.21-2.94-7.07c-1.859-1.86-4.43-2.93-7.069-2.93-2.63 0-5.21 1.07-7.07 2.93s-2.92 4.44-2.92 7.07 1.06 5.21 2.92 7.07c1.87 1.86 4.44 2.93 7.07 2.93 2.64 0 5.21-1.07 7.069-2.93z"/></g></g></svg>